<mxfile host="app.diagrams.net" modified="2021-06-21T08:27:39.139Z" agent="5.0 (Windows NT 6.1; Win64; x64) AppleWebKit/537.36 (KHTML, like Gecko) Chrome/91.0.4472.106 Safari/537.36" etag="ncWKacRUsEI3bzAlmq7n" version="14.8.0" type="github" pages="2">
  <diagram name="Page-1" id="74e2e168-ea6b-b213-b513-2b3c1d86103e">
    <mxGraphModel dx="2062" dy="1162" grid="1" gridSize="10" guides="1" tooltips="1" connect="1" arrows="1" fold="1" page="1" pageScale="1" pageWidth="1100" pageHeight="850" background="none" math="0" shadow="0">
      <root>
        <mxCell id="0" />
        <mxCell id="1" parent="0" />
        <mxCell id="77e6c97f196da883-1" value="Pool" style="swimlane;html=1;childLayout=stackLayout;startSize=20;rounded=0;shadow=0;labelBackgroundColor=none;strokeWidth=1;fontFamily=Verdana;fontSize=8;align=center;" parent="1" vertex="1">
          <mxGeometry x="160" y="150" width="780" height="1310" as="geometry" />
        </mxCell>
        <mxCell id="77e6c97f196da883-2" value="供应商" style="swimlane;html=1;startSize=20;" parent="77e6c97f196da883-1" vertex="1">
          <mxGeometry y="20" width="160" height="1290" as="geometry" />
        </mxCell>
        <mxCell id="77e6c97f196da883-9" value="发货单" style="rounded=1;whiteSpace=wrap;html=1;shadow=0;labelBackgroundColor=none;strokeWidth=1;fontFamily=Verdana;fontSize=8;align=center;" parent="77e6c97f196da883-2" vertex="1">
          <mxGeometry x="30" y="50" width="100" height="60" as="geometry" />
        </mxCell>
        <mxCell id="jpuDXvxM0zQwWNFd-bmV-51" value="" style="edgeStyle=orthogonalEdgeStyle;rounded=0;orthogonalLoop=1;jettySize=auto;html=1;" edge="1" parent="77e6c97f196da883-2" source="jpuDXvxM0zQwWNFd-bmV-46" target="jpuDXvxM0zQwWNFd-bmV-50">
          <mxGeometry relative="1" as="geometry" />
        </mxCell>
        <mxCell id="jpuDXvxM0zQwWNFd-bmV-46" value="货品审核(销售业务员)" style="whiteSpace=wrap;html=1;rounded=1;shadow=0;fontFamily=Verdana;fontSize=8;strokeWidth=1;" vertex="1" parent="77e6c97f196da883-2">
          <mxGeometry x="10" y="780" width="120" height="60" as="geometry" />
        </mxCell>
        <mxCell id="jpuDXvxM0zQwWNFd-bmV-50" value="确认发货(业务员)" style="whiteSpace=wrap;html=1;rounded=1;shadow=0;fontFamily=Verdana;fontSize=8;strokeWidth=1;" vertex="1" parent="77e6c97f196da883-2">
          <mxGeometry x="10" y="920" width="120" height="60" as="geometry" />
        </mxCell>
        <mxCell id="jpuDXvxM0zQwWNFd-bmV-67" value="&lt;span style=&quot;font-family: &amp;#34;verdana&amp;#34; ; font-size: 8px&quot;&gt;运输单审核&lt;/span&gt;" style="rhombus;whiteSpace=wrap;html=1;" vertex="1" parent="77e6c97f196da883-2">
          <mxGeometry x="40" y="600" width="80" height="80" as="geometry" />
        </mxCell>
        <mxCell id="77e6c97f196da883-28" style="edgeStyle=orthogonalEdgeStyle;rounded=1;html=1;labelBackgroundColor=none;startArrow=none;startFill=0;startSize=5;endArrow=classicThin;endFill=1;endSize=5;jettySize=auto;orthogonalLoop=1;strokeWidth=1;fontFamily=Verdana;fontSize=8" parent="77e6c97f196da883-1" source="77e6c97f196da883-9" target="77e6c97f196da883-12" edge="1">
          <mxGeometry relative="1" as="geometry">
            <Array as="points">
              <mxPoint x="160" y="100" />
              <mxPoint x="160" y="100" />
            </Array>
          </mxGeometry>
        </mxCell>
        <mxCell id="77e6c97f196da883-3" value="物流公司" style="swimlane;html=1;startSize=20;" parent="77e6c97f196da883-1" vertex="1">
          <mxGeometry x="160" y="20" width="210" height="1290" as="geometry" />
        </mxCell>
        <mxCell id="77e6c97f196da883-12" value="填写运输计划" style="rounded=1;whiteSpace=wrap;html=1;shadow=0;labelBackgroundColor=none;strokeWidth=1;fontFamily=Verdana;fontSize=8;align=center;" parent="77e6c97f196da883-3" vertex="1">
          <mxGeometry x="40" y="50" width="100" height="60" as="geometry" />
        </mxCell>
        <mxCell id="jpuDXvxM0zQwWNFd-bmV-9" value="填写运输阶段" style="whiteSpace=wrap;html=1;rounded=1;shadow=0;fontFamily=Verdana;fontSize=8;strokeWidth=1;" vertex="1" parent="77e6c97f196da883-3">
          <mxGeometry x="30" y="200" width="120" height="60" as="geometry" />
        </mxCell>
        <mxCell id="jpuDXvxM0zQwWNFd-bmV-8" value="" style="edgeStyle=orthogonalEdgeStyle;rounded=0;orthogonalLoop=1;jettySize=auto;html=1;exitX=0.5;exitY=1;exitDx=0;exitDy=0;entryX=0.5;entryY=0;entryDx=0;entryDy=0;" edge="1" parent="77e6c97f196da883-3" source="77e6c97f196da883-12" target="jpuDXvxM0zQwWNFd-bmV-9">
          <mxGeometry relative="1" as="geometry">
            <mxPoint x="-40" y="210" as="targetPoint" />
            <Array as="points" />
          </mxGeometry>
        </mxCell>
        <mxCell id="jpuDXvxM0zQwWNFd-bmV-58" value="&lt;span&gt;审核运输计划&lt;/span&gt;" style="rhombus;whiteSpace=wrap;html=1;rounded=1;shadow=0;fontFamily=Verdana;fontSize=8;strokeWidth=1;" vertex="1" parent="77e6c97f196da883-3">
          <mxGeometry x="65" y="455" width="80" height="80" as="geometry" />
        </mxCell>
        <mxCell id="77e6c97f196da883-4" value="承运方" style="swimlane;html=1;startSize=20;" parent="77e6c97f196da883-1" vertex="1">
          <mxGeometry x="370" y="20" width="190" height="1290" as="geometry" />
        </mxCell>
        <mxCell id="jpuDXvxM0zQwWNFd-bmV-18" value="" style="edgeStyle=orthogonalEdgeStyle;rounded=0;orthogonalLoop=1;jettySize=auto;html=1;" edge="1" parent="77e6c97f196da883-4" source="jpuDXvxM0zQwWNFd-bmV-12" target="jpuDXvxM0zQwWNFd-bmV-17">
          <mxGeometry relative="1" as="geometry" />
        </mxCell>
        <mxCell id="jpuDXvxM0zQwWNFd-bmV-12" value="&lt;span&gt;完善运输计划信息&lt;/span&gt;" style="rounded=1;whiteSpace=wrap;html=1;shadow=0;fontFamily=Verdana;fontSize=8;strokeWidth=1;" vertex="1" parent="77e6c97f196da883-4">
          <mxGeometry x="35" y="325" width="120" height="60" as="geometry" />
        </mxCell>
        <mxCell id="jpuDXvxM0zQwWNFd-bmV-17" value="提交" style="whiteSpace=wrap;html=1;rounded=1;shadow=0;fontFamily=Verdana;fontSize=8;strokeWidth=1;" vertex="1" parent="77e6c97f196da883-4">
          <mxGeometry x="35" y="465" width="120" height="60" as="geometry" />
        </mxCell>
        <mxCell id="jpuDXvxM0zQwWNFd-bmV-44" value="上传货品照片" style="whiteSpace=wrap;html=1;rounded=1;shadow=0;fontFamily=Verdana;fontSize=8;strokeWidth=1;" vertex="1" parent="77e6c97f196da883-4">
          <mxGeometry x="35" y="610" width="120" height="60" as="geometry" />
        </mxCell>
        <mxCell id="jpuDXvxM0zQwWNFd-bmV-48" value="确认送达" style="whiteSpace=wrap;html=1;rounded=1;shadow=0;fontFamily=Verdana;fontSize=8;strokeWidth=1;" vertex="1" parent="77e6c97f196da883-4">
          <mxGeometry x="50" y="1070" width="120" height="60" as="geometry" />
        </mxCell>
        <mxCell id="jpuDXvxM0zQwWNFd-bmV-54" value="" style="edgeStyle=orthogonalEdgeStyle;rounded=0;orthogonalLoop=1;jettySize=auto;html=1;" edge="1" parent="77e6c97f196da883-4" source="jpuDXvxM0zQwWNFd-bmV-52" target="jpuDXvxM0zQwWNFd-bmV-48">
          <mxGeometry relative="1" as="geometry" />
        </mxCell>
        <mxCell id="jpuDXvxM0zQwWNFd-bmV-52" value="确认发货" style="whiteSpace=wrap;html=1;rounded=1;shadow=0;fontFamily=Verdana;fontSize=8;strokeWidth=1;" vertex="1" parent="77e6c97f196da883-4">
          <mxGeometry x="50" y="920" width="120" height="60" as="geometry" />
        </mxCell>
        <mxCell id="77e6c97f196da883-5" value="采购方" style="swimlane;html=1;startSize=20;" parent="77e6c97f196da883-1" vertex="1">
          <mxGeometry x="560" y="20" width="220" height="1290" as="geometry" />
        </mxCell>
        <mxCell id="jpuDXvxM0zQwWNFd-bmV-55" value="二维码签收" style="whiteSpace=wrap;html=1;rounded=1;shadow=0;fontFamily=Verdana;fontSize=8;strokeWidth=1;" vertex="1" parent="77e6c97f196da883-5">
          <mxGeometry x="60" y="1070" width="120" height="60" as="geometry" />
        </mxCell>
        <mxCell id="jpuDXvxM0zQwWNFd-bmV-13" value="" style="edgeStyle=orthogonalEdgeStyle;rounded=0;orthogonalLoop=1;jettySize=auto;html=1;" edge="1" parent="77e6c97f196da883-1" source="jpuDXvxM0zQwWNFd-bmV-9" target="jpuDXvxM0zQwWNFd-bmV-12">
          <mxGeometry relative="1" as="geometry" />
        </mxCell>
        <mxCell id="jpuDXvxM0zQwWNFd-bmV-42" value="" style="edgeStyle=orthogonalEdgeStyle;rounded=0;orthogonalLoop=1;jettySize=auto;html=1;exitX=0;exitY=0.5;exitDx=0;exitDy=0;" edge="1" parent="77e6c97f196da883-1" source="jpuDXvxM0zQwWNFd-bmV-58">
          <mxGeometry relative="1" as="geometry">
            <mxPoint x="80" y="620" as="targetPoint" />
          </mxGeometry>
        </mxCell>
        <mxCell id="jpuDXvxM0zQwWNFd-bmV-60" value="通过" style="edgeLabel;html=1;align=center;verticalAlign=middle;resizable=0;points=[];" vertex="1" connectable="0" parent="jpuDXvxM0zQwWNFd-bmV-42">
          <mxGeometry x="0.1986" relative="1" as="geometry">
            <mxPoint as="offset" />
          </mxGeometry>
        </mxCell>
        <mxCell id="jpuDXvxM0zQwWNFd-bmV-45" value="" style="edgeStyle=orthogonalEdgeStyle;rounded=0;orthogonalLoop=1;jettySize=auto;html=1;exitX=1;exitY=0.5;exitDx=0;exitDy=0;" edge="1" parent="77e6c97f196da883-1" source="jpuDXvxM0zQwWNFd-bmV-67" target="jpuDXvxM0zQwWNFd-bmV-44">
          <mxGeometry relative="1" as="geometry">
            <mxPoint x="140" y="660" as="sourcePoint" />
          </mxGeometry>
        </mxCell>
        <mxCell id="jpuDXvxM0zQwWNFd-bmV-47" value="" style="edgeStyle=orthogonalEdgeStyle;rounded=0;orthogonalLoop=1;jettySize=auto;html=1;" edge="1" parent="77e6c97f196da883-1" source="jpuDXvxM0zQwWNFd-bmV-44" target="jpuDXvxM0zQwWNFd-bmV-46">
          <mxGeometry relative="1" as="geometry">
            <Array as="points">
              <mxPoint x="465" y="830" />
            </Array>
          </mxGeometry>
        </mxCell>
        <mxCell id="jpuDXvxM0zQwWNFd-bmV-53" value="" style="edgeStyle=orthogonalEdgeStyle;rounded=0;orthogonalLoop=1;jettySize=auto;html=1;" edge="1" parent="77e6c97f196da883-1" source="jpuDXvxM0zQwWNFd-bmV-50" target="jpuDXvxM0zQwWNFd-bmV-52">
          <mxGeometry relative="1" as="geometry" />
        </mxCell>
        <mxCell id="jpuDXvxM0zQwWNFd-bmV-56" value="" style="edgeStyle=orthogonalEdgeStyle;rounded=0;orthogonalLoop=1;jettySize=auto;html=1;" edge="1" parent="77e6c97f196da883-1" source="jpuDXvxM0zQwWNFd-bmV-48" target="jpuDXvxM0zQwWNFd-bmV-55">
          <mxGeometry relative="1" as="geometry" />
        </mxCell>
        <mxCell id="jpuDXvxM0zQwWNFd-bmV-59" value="" style="edgeStyle=orthogonalEdgeStyle;rounded=0;orthogonalLoop=1;jettySize=auto;html=1;" edge="1" parent="77e6c97f196da883-1" source="jpuDXvxM0zQwWNFd-bmV-17" target="jpuDXvxM0zQwWNFd-bmV-58">
          <mxGeometry relative="1" as="geometry" />
        </mxCell>
      </root>
    </mxGraphModel>
  </diagram>
  <diagram id="CH4AbKR1haZKDiyE6jRj" name="第 2 页">
    <mxGraphModel dx="2062" dy="1162" grid="1" gridSize="10" guides="1" tooltips="1" connect="1" arrows="1" fold="1" page="1" pageScale="1" pageWidth="827" pageHeight="1169" math="0" shadow="0">
      <root>
        <mxCell id="TXwtXCUShMmrE0f7fqz7-0" />
        <mxCell id="TXwtXCUShMmrE0f7fqz7-1" parent="TXwtXCUShMmrE0f7fqz7-0" />
        <mxCell id="4_GSfE641XCkRbFsFtHV-0" value="Pool" style="swimlane;html=1;childLayout=stackLayout;startSize=20;rounded=0;shadow=0;labelBackgroundColor=none;strokeWidth=1;fontFamily=Verdana;fontSize=8;align=center;" vertex="1" parent="TXwtXCUShMmrE0f7fqz7-1">
          <mxGeometry x="170" y="210" width="840" height="1820" as="geometry" />
        </mxCell>
        <mxCell id="4_GSfE641XCkRbFsFtHV-1" value="存货方" style="swimlane;html=1;startSize=20;" vertex="1" parent="4_GSfE641XCkRbFsFtHV-0">
          <mxGeometry y="20" width="160" height="1800" as="geometry" />
        </mxCell>
        <mxCell id="4_GSfE641XCkRbFsFtHV-2" value="申请入库" style="rounded=1;whiteSpace=wrap;html=1;shadow=0;labelBackgroundColor=none;strokeWidth=1;fontFamily=Verdana;fontSize=8;align=center;" vertex="1" parent="4_GSfE641XCkRbFsFtHV-1">
          <mxGeometry x="30" y="50" width="100" height="60" as="geometry" />
        </mxCell>
        <mxCell id="4_GSfE641XCkRbFsFtHV-3" value="" style="edgeStyle=orthogonalEdgeStyle;rounded=0;orthogonalLoop=1;jettySize=auto;html=1;" edge="1" parent="4_GSfE641XCkRbFsFtHV-1" target="4_GSfE641XCkRbFsFtHV-5">
          <mxGeometry relative="1" as="geometry">
            <mxPoint x="70" y="840" as="sourcePoint" />
          </mxGeometry>
        </mxCell>
        <mxCell id="4_GSfE641XCkRbFsFtHV-46" value="申请电子仓单" style="rounded=1;whiteSpace=wrap;html=1;shadow=0;labelBackgroundColor=none;strokeWidth=1;fontFamily=Verdana;fontSize=8;align=center;" vertex="1" parent="4_GSfE641XCkRbFsFtHV-1">
          <mxGeometry x="40" y="580" width="100" height="60" as="geometry" />
        </mxCell>
        <mxCell id="4_GSfE641XCkRbFsFtHV-23" value="" style="edgeStyle=orthogonalEdgeStyle;rounded=0;orthogonalLoop=1;jettySize=auto;html=1;" edge="1" parent="4_GSfE641XCkRbFsFtHV-0" target="4_GSfE641XCkRbFsFtHV-15">
          <mxGeometry relative="1" as="geometry">
            <mxPoint x="310" y="250" as="sourcePoint" />
          </mxGeometry>
        </mxCell>
        <mxCell id="4_GSfE641XCkRbFsFtHV-26" value="" style="edgeStyle=orthogonalEdgeStyle;rounded=0;orthogonalLoop=1;jettySize=auto;html=1;exitX=1;exitY=0.5;exitDx=0;exitDy=0;" edge="1" parent="4_GSfE641XCkRbFsFtHV-0" target="4_GSfE641XCkRbFsFtHV-17">
          <mxGeometry relative="1" as="geometry">
            <mxPoint x="120" y="660" as="sourcePoint" />
          </mxGeometry>
        </mxCell>
        <mxCell id="4_GSfE641XCkRbFsFtHV-27" value="" style="edgeStyle=orthogonalEdgeStyle;rounded=0;orthogonalLoop=1;jettySize=auto;html=1;" edge="1" parent="4_GSfE641XCkRbFsFtHV-0" source="4_GSfE641XCkRbFsFtHV-17">
          <mxGeometry relative="1" as="geometry">
            <Array as="points">
              <mxPoint x="465" y="830" />
            </Array>
            <mxPoint x="130" y="830" as="targetPoint" />
          </mxGeometry>
        </mxCell>
        <mxCell id="4_GSfE641XCkRbFsFtHV-28" value="" style="edgeStyle=orthogonalEdgeStyle;rounded=0;orthogonalLoop=1;jettySize=auto;html=1;" edge="1" parent="4_GSfE641XCkRbFsFtHV-0" target="4_GSfE641XCkRbFsFtHV-20">
          <mxGeometry relative="1" as="geometry">
            <mxPoint x="130" y="970" as="sourcePoint" />
          </mxGeometry>
        </mxCell>
        <mxCell id="4_GSfE641XCkRbFsFtHV-29" value="" style="edgeStyle=orthogonalEdgeStyle;rounded=0;orthogonalLoop=1;jettySize=auto;html=1;" edge="1" parent="4_GSfE641XCkRbFsFtHV-0" target="4_GSfE641XCkRbFsFtHV-22">
          <mxGeometry relative="1" as="geometry">
            <mxPoint x="540" y="1120" as="sourcePoint" />
          </mxGeometry>
        </mxCell>
        <mxCell id="4_GSfE641XCkRbFsFtHV-30" value="" style="edgeStyle=orthogonalEdgeStyle;rounded=0;orthogonalLoop=1;jettySize=auto;html=1;" edge="1" parent="4_GSfE641XCkRbFsFtHV-0" target="4_GSfE641XCkRbFsFtHV-12">
          <mxGeometry relative="1" as="geometry">
            <mxPoint x="405" y="515" as="sourcePoint" />
          </mxGeometry>
        </mxCell>
        <mxCell id="4_GSfE641XCkRbFsFtHV-32" value="" style="edgeStyle=orthogonalEdgeStyle;rounded=0;orthogonalLoop=1;jettySize=auto;html=1;" edge="1" parent="4_GSfE641XCkRbFsFtHV-0" source="4_GSfE641XCkRbFsFtHV-2" target="4_GSfE641XCkRbFsFtHV-31">
          <mxGeometry relative="1" as="geometry" />
        </mxCell>
        <mxCell id="4_GSfE641XCkRbFsFtHV-38" value="" style="edgeStyle=orthogonalEdgeStyle;rounded=0;orthogonalLoop=1;jettySize=auto;html=1;entryX=0.5;entryY=1;entryDx=0;entryDy=0;" edge="1" parent="4_GSfE641XCkRbFsFtHV-0" source="4_GSfE641XCkRbFsFtHV-35" target="4_GSfE641XCkRbFsFtHV-2">
          <mxGeometry relative="1" as="geometry">
            <mxPoint x="160" y="240" as="targetPoint" />
          </mxGeometry>
        </mxCell>
        <mxCell id="4_GSfE641XCkRbFsFtHV-48" value="" style="edgeStyle=orthogonalEdgeStyle;rounded=0;orthogonalLoop=1;jettySize=auto;html=1;entryX=0.5;entryY=0;entryDx=0;entryDy=0;" edge="1" parent="4_GSfE641XCkRbFsFtHV-0" source="4_GSfE641XCkRbFsFtHV-46" target="4_GSfE641XCkRbFsFtHV-47">
          <mxGeometry relative="1" as="geometry" />
        </mxCell>
        <mxCell id="4_GSfE641XCkRbFsFtHV-8" value="仓储方" style="swimlane;html=1;startSize=20;" vertex="1" parent="4_GSfE641XCkRbFsFtHV-0">
          <mxGeometry x="160" y="20" width="360" height="1800" as="geometry" />
        </mxCell>
        <mxCell id="4_GSfE641XCkRbFsFtHV-36" value="" style="edgeStyle=orthogonalEdgeStyle;rounded=0;orthogonalLoop=1;jettySize=auto;html=1;" edge="1" parent="4_GSfE641XCkRbFsFtHV-8" source="4_GSfE641XCkRbFsFtHV-31" target="4_GSfE641XCkRbFsFtHV-35">
          <mxGeometry relative="1" as="geometry" />
        </mxCell>
        <mxCell id="4_GSfE641XCkRbFsFtHV-31" value="入库受理" style="whiteSpace=wrap;html=1;rounded=1;shadow=0;fontFamily=Verdana;fontSize=8;strokeWidth=1;" vertex="1" parent="4_GSfE641XCkRbFsFtHV-8">
          <mxGeometry x="40" y="50" width="120" height="60" as="geometry" />
        </mxCell>
        <mxCell id="4_GSfE641XCkRbFsFtHV-40" value="受理" style="edgeStyle=orthogonalEdgeStyle;rounded=0;orthogonalLoop=1;jettySize=auto;html=1;" edge="1" parent="4_GSfE641XCkRbFsFtHV-8" source="4_GSfE641XCkRbFsFtHV-35" target="4_GSfE641XCkRbFsFtHV-39">
          <mxGeometry relative="1" as="geometry" />
        </mxCell>
        <mxCell id="4_GSfE641XCkRbFsFtHV-35" value="是否受理" style="rhombus;whiteSpace=wrap;html=1;rounded=1;shadow=0;fontFamily=Verdana;fontSize=8;strokeWidth=1;" vertex="1" parent="4_GSfE641XCkRbFsFtHV-8">
          <mxGeometry x="60" y="180" width="80" height="80" as="geometry" />
        </mxCell>
        <mxCell id="4_GSfE641XCkRbFsFtHV-43" value="" style="edgeStyle=orthogonalEdgeStyle;rounded=0;orthogonalLoop=1;jettySize=auto;html=1;" edge="1" parent="4_GSfE641XCkRbFsFtHV-8" source="4_GSfE641XCkRbFsFtHV-39" target="4_GSfE641XCkRbFsFtHV-42">
          <mxGeometry relative="1" as="geometry" />
        </mxCell>
        <mxCell id="4_GSfE641XCkRbFsFtHV-39" value="入库办理" style="whiteSpace=wrap;html=1;rounded=1;shadow=0;fontFamily=Verdana;fontSize=8;strokeWidth=1;" vertex="1" parent="4_GSfE641XCkRbFsFtHV-8">
          <mxGeometry x="40" y="350" width="120" height="60" as="geometry" />
        </mxCell>
        <mxCell id="4_GSfE641XCkRbFsFtHV-42" value="签章" style="whiteSpace=wrap;html=1;rounded=1;shadow=0;fontFamily=Verdana;fontSize=8;strokeWidth=1;" vertex="1" parent="4_GSfE641XCkRbFsFtHV-8">
          <mxGeometry x="40" y="490" width="120" height="60" as="geometry" />
        </mxCell>
        <mxCell id="4_GSfE641XCkRbFsFtHV-47" value="生成电子仓单数据" style="whiteSpace=wrap;html=1;rounded=1;shadow=0;fontFamily=Verdana;fontSize=8;strokeWidth=1;" vertex="1" parent="4_GSfE641XCkRbFsFtHV-8">
          <mxGeometry x="40" y="690" width="120" height="60" as="geometry" />
        </mxCell>
        <mxCell id="4_GSfE641XCkRbFsFtHV-110" value="" style="edgeStyle=orthogonalEdgeStyle;rounded=0;orthogonalLoop=1;jettySize=auto;html=1;" edge="1" parent="4_GSfE641XCkRbFsFtHV-8" source="4_GSfE641XCkRbFsFtHV-107" target="4_GSfE641XCkRbFsFtHV-109">
          <mxGeometry relative="1" as="geometry" />
        </mxCell>
        <mxCell id="4_GSfE641XCkRbFsFtHV-107" value="电子仓单办理" style="whiteSpace=wrap;html=1;rounded=1;shadow=0;fontFamily=Verdana;fontSize=8;strokeWidth=1;" vertex="1" parent="4_GSfE641XCkRbFsFtHV-8">
          <mxGeometry x="40" y="870" width="120" height="60" as="geometry" />
        </mxCell>
        <mxCell id="4_GSfE641XCkRbFsFtHV-111" value="" style="edgeStyle=orthogonalEdgeStyle;rounded=0;orthogonalLoop=1;jettySize=auto;html=1;" edge="1" parent="4_GSfE641XCkRbFsFtHV-8" source="4_GSfE641XCkRbFsFtHV-109" target="4_GSfE641XCkRbFsFtHV-51">
          <mxGeometry relative="1" as="geometry" />
        </mxCell>
        <mxCell id="4_GSfE641XCkRbFsFtHV-109" value="签章" style="whiteSpace=wrap;html=1;rounded=1;shadow=0;fontFamily=Verdana;fontSize=8;strokeWidth=1;" vertex="1" parent="4_GSfE641XCkRbFsFtHV-8">
          <mxGeometry x="40" y="1020" width="120" height="60" as="geometry" />
        </mxCell>
        <mxCell id="4_GSfE641XCkRbFsFtHV-52" value="" style="edgeStyle=orthogonalEdgeStyle;rounded=0;orthogonalLoop=1;jettySize=auto;html=1;entryX=0.5;entryY=0;entryDx=0;entryDy=0;exitX=0.5;exitY=1;exitDx=0;exitDy=0;" edge="1" parent="4_GSfE641XCkRbFsFtHV-8" source="4_GSfE641XCkRbFsFtHV-47" target="4_GSfE641XCkRbFsFtHV-107">
          <mxGeometry relative="1" as="geometry">
            <mxPoint x="170" y="810" as="sourcePoint" />
            <Array as="points">
              <mxPoint x="100" y="780" />
              <mxPoint x="100" y="780" />
            </Array>
          </mxGeometry>
        </mxCell>
        <mxCell id="4_GSfE641XCkRbFsFtHV-51" value="申请转让、质押、解质、出库、确认转让" style="whiteSpace=wrap;html=1;rounded=1;shadow=0;fontFamily=Verdana;fontSize=8;strokeWidth=1;" vertex="1" parent="4_GSfE641XCkRbFsFtHV-8">
          <mxGeometry x="50" y="1170" width="100" height="60" as="geometry" />
        </mxCell>
        <mxCell id="4_GSfE641XCkRbFsFtHV-84" value="资金方" style="swimlane;html=1;startSize=20;" vertex="1" parent="4_GSfE641XCkRbFsFtHV-0">
          <mxGeometry x="520" y="20" width="320" height="1800" as="geometry" />
        </mxCell>
        <mxCell id="4_GSfE641XCkRbFsFtHV-41" value="不受理" style="text;html=1;align=center;verticalAlign=middle;resizable=0;points=[];autosize=1;strokeColor=none;" vertex="1" parent="TXwtXCUShMmrE0f7fqz7-1">
          <mxGeometry x="225" y="380" width="50" height="20" as="geometry" />
        </mxCell>
      </root>
    </mxGraphModel>
  </diagram>
</mxfile>
